<mxfile host="app.diagrams.net" modified="2023-06-03T13:55:38.705Z" agent="Mozilla/5.0 (Windows NT 10.0; Win64; x64) AppleWebKit/537.36 (KHTML, like Gecko) Chrome/112.0.0.0 Safari/537.36 OPR/98.0.0.0" etag="ZDGgQUaEY4cU6llJ6upW" version="21.3.2">
  <diagram name="Страница 1" id="rWSBaZONI_ujTavnjbfF">
    <mxGraphModel dx="1062" dy="579" grid="1" gridSize="10" guides="1" tooltips="1" connect="1" arrows="1" fold="1" page="1" pageScale="1" pageWidth="827" pageHeight="1169" background="#FFFFFF" math="0" shadow="0">
      <root>
        <mxCell id="0" />
        <mxCell id="1" parent="0" />
        <mxCell id="entmrdIzcoo0nh64UQ4R-2" value="Entity" style="swimlane;fontStyle=0;align=center;verticalAlign=top;childLayout=stackLayout;horizontal=1;startSize=26;horizontalStack=0;resizeParent=1;resizeLast=0;collapsible=1;marginBottom=0;rounded=0;shadow=0;strokeWidth=2;" parent="1" vertex="1">
          <mxGeometry x="254" y="40" width="320" height="250" as="geometry">
            <mxRectangle x="230" y="140" width="160" height="26" as="alternateBounds" />
          </mxGeometry>
        </mxCell>
        <mxCell id="entmrdIzcoo0nh64UQ4R-3" value="# static inline unsigned int id{} " style="text;align=left;verticalAlign=top;spacingLeft=4;spacingRight=4;overflow=hidden;rotatable=0;points=[[0,0.5],[1,0.5]];portConstraint=eastwest;" parent="entmrdIzcoo0nh64UQ4R-2" vertex="1">
          <mxGeometry y="26" width="320" height="26" as="geometry" />
        </mxCell>
        <mxCell id="entmrdIzcoo0nh64UQ4R-10" value="# unsigned int self_id" style="text;align=left;verticalAlign=top;spacingLeft=4;spacingRight=4;overflow=hidden;rotatable=0;points=[[0,0.5],[1,0.5]];portConstraint=eastwest;" parent="entmrdIzcoo0nh64UQ4R-2" vertex="1">
          <mxGeometry y="52" width="320" height="26" as="geometry" />
        </mxCell>
        <mxCell id="entmrdIzcoo0nh64UQ4R-4" value="" style="line;html=1;strokeWidth=1;align=left;verticalAlign=middle;spacingTop=-1;spacingLeft=3;spacingRight=3;rotatable=0;labelPosition=right;points=[];portConstraint=eastwest;" parent="entmrdIzcoo0nh64UQ4R-2" vertex="1">
          <mxGeometry y="78" width="320" height="8" as="geometry" />
        </mxCell>
        <mxCell id="entmrdIzcoo0nh64UQ4R-5" value="+ Entity()" style="text;align=left;verticalAlign=top;spacingLeft=4;spacingRight=4;overflow=hidden;rotatable=0;points=[[0,0.5],[1,0.5]];portConstraint=eastwest;" parent="entmrdIzcoo0nh64UQ4R-2" vertex="1">
          <mxGeometry y="86" width="320" height="26" as="geometry" />
        </mxCell>
        <mxCell id="entmrdIzcoo0nh64UQ4R-6" value="+ virtual const char* get_type()" style="text;align=left;verticalAlign=top;spacingLeft=4;spacingRight=4;overflow=hidden;rotatable=0;points=[[0,0.5],[1,0.5]];portConstraint=eastwest;rounded=0;shadow=0;html=0;" parent="entmrdIzcoo0nh64UQ4R-2" vertex="1">
          <mxGeometry y="112" width="320" height="26" as="geometry" />
        </mxCell>
        <mxCell id="entmrdIzcoo0nh64UQ4R-7" value="+ friend ostream&amp; operator&lt;&lt;(ostream&amp; out, Entity&amp; self)" style="text;align=left;verticalAlign=top;spacingLeft=4;spacingRight=4;overflow=hidden;rotatable=0;points=[[0,0.5],[1,0.5]];portConstraint=eastwest;rounded=0;shadow=0;html=0;" parent="entmrdIzcoo0nh64UQ4R-2" vertex="1">
          <mxGeometry y="138" width="320" height="26" as="geometry" />
        </mxCell>
        <mxCell id="entmrdIzcoo0nh64UQ4R-8" value="+ friend istream&amp; operator&gt;&gt;(istream&amp; in, Entity&amp; self) &#xa;" style="text;align=left;verticalAlign=top;spacingLeft=4;spacingRight=4;overflow=hidden;rotatable=0;points=[[0,0.5],[1,0.5]];portConstraint=eastwest;rounded=0;shadow=0;html=0;" parent="entmrdIzcoo0nh64UQ4R-2" vertex="1">
          <mxGeometry y="164" width="320" height="26" as="geometry" />
        </mxCell>
        <mxCell id="entmrdIzcoo0nh64UQ4R-9" value="+ virtual void input() " style="text;align=left;verticalAlign=top;spacingLeft=4;spacingRight=4;overflow=hidden;rotatable=0;points=[[0,0.5],[1,0.5]];portConstraint=eastwest;rounded=0;shadow=0;html=0;" parent="entmrdIzcoo0nh64UQ4R-2" vertex="1">
          <mxGeometry y="190" width="320" height="26" as="geometry" />
        </mxCell>
        <mxCell id="entmrdIzcoo0nh64UQ4R-11" value="+ virtual void print() " style="text;align=left;verticalAlign=top;spacingLeft=4;spacingRight=4;overflow=hidden;rotatable=0;points=[[0,0.5],[1,0.5]];portConstraint=eastwest;rounded=0;shadow=0;html=0;" parent="entmrdIzcoo0nh64UQ4R-2" vertex="1">
          <mxGeometry y="216" width="320" height="26" as="geometry" />
        </mxCell>
        <mxCell id="entmrdIzcoo0nh64UQ4R-26" style="edgeStyle=orthogonalEdgeStyle;rounded=0;orthogonalLoop=1;jettySize=auto;html=1;entryX=0.5;entryY=1;entryDx=0;entryDy=0;" parent="1" source="entmrdIzcoo0nh64UQ4R-12" target="entmrdIzcoo0nh64UQ4R-2" edge="1">
          <mxGeometry relative="1" as="geometry" />
        </mxCell>
        <mxCell id="entmrdIzcoo0nh64UQ4R-12" value="DynamicObject" style="swimlane;fontStyle=0;align=center;verticalAlign=top;childLayout=stackLayout;horizontal=1;startSize=26;horizontalStack=0;resizeParent=1;resizeLast=0;collapsible=1;marginBottom=0;rounded=0;shadow=0;strokeWidth=2;" parent="1" vertex="1">
          <mxGeometry x="10" y="390" width="360" height="370" as="geometry">
            <mxRectangle x="230" y="140" width="160" height="26" as="alternateBounds" />
          </mxGeometry>
        </mxCell>
        <mxCell id="entmrdIzcoo0nh64UQ4R-23" value="# double coordx" style="text;align=left;verticalAlign=top;spacingLeft=4;spacingRight=4;overflow=hidden;rotatable=0;points=[[0,0.5],[1,0.5]];portConstraint=eastwest;" parent="entmrdIzcoo0nh64UQ4R-12" vertex="1">
          <mxGeometry y="26" width="360" height="26" as="geometry" />
        </mxCell>
        <mxCell id="entmrdIzcoo0nh64UQ4R-24" value="# double coordy" style="text;align=left;verticalAlign=top;spacingLeft=4;spacingRight=4;overflow=hidden;rotatable=0;points=[[0,0.5],[1,0.5]];portConstraint=eastwest;" parent="entmrdIzcoo0nh64UQ4R-12" vertex="1">
          <mxGeometry y="52" width="360" height="26" as="geometry" />
        </mxCell>
        <mxCell id="entmrdIzcoo0nh64UQ4R-25" value="# double coordz" style="text;align=left;verticalAlign=top;spacingLeft=4;spacingRight=4;overflow=hidden;rotatable=0;points=[[0,0.5],[1,0.5]];portConstraint=eastwest;" parent="entmrdIzcoo0nh64UQ4R-12" vertex="1">
          <mxGeometry y="78" width="360" height="26" as="geometry" />
        </mxCell>
        <mxCell id="entmrdIzcoo0nh64UQ4R-13" value="# double speedx" style="text;align=left;verticalAlign=top;spacingLeft=4;spacingRight=4;overflow=hidden;rotatable=0;points=[[0,0.5],[1,0.5]];portConstraint=eastwest;" parent="entmrdIzcoo0nh64UQ4R-12" vertex="1">
          <mxGeometry y="104" width="360" height="26" as="geometry" />
        </mxCell>
        <mxCell id="entmrdIzcoo0nh64UQ4R-14" value="# double speedy" style="text;align=left;verticalAlign=top;spacingLeft=4;spacingRight=4;overflow=hidden;rotatable=0;points=[[0,0.5],[1,0.5]];portConstraint=eastwest;" parent="entmrdIzcoo0nh64UQ4R-12" vertex="1">
          <mxGeometry y="130" width="360" height="26" as="geometry" />
        </mxCell>
        <mxCell id="entmrdIzcoo0nh64UQ4R-22" value="# double speedz" style="text;align=left;verticalAlign=top;spacingLeft=4;spacingRight=4;overflow=hidden;rotatable=0;points=[[0,0.5],[1,0.5]];portConstraint=eastwest;" parent="entmrdIzcoo0nh64UQ4R-12" vertex="1">
          <mxGeometry y="156" width="360" height="26" as="geometry" />
        </mxCell>
        <mxCell id="entmrdIzcoo0nh64UQ4R-15" value="" style="line;html=1;strokeWidth=1;align=left;verticalAlign=middle;spacingTop=-1;spacingLeft=3;spacingRight=3;rotatable=0;labelPosition=right;points=[];portConstraint=eastwest;" parent="entmrdIzcoo0nh64UQ4R-12" vertex="1">
          <mxGeometry y="182" width="360" height="8" as="geometry" />
        </mxCell>
        <mxCell id="entmrdIzcoo0nh64UQ4R-16" value="+ DynamicObject(double coordx, double coordy, double coordz,&#xa;                         double speedx, double speedy, double speedz)" style="text;align=left;verticalAlign=top;spacingLeft=4;spacingRight=4;overflow=hidden;rotatable=0;points=[[0,0.5],[1,0.5]];portConstraint=eastwest;" parent="entmrdIzcoo0nh64UQ4R-12" vertex="1">
          <mxGeometry y="190" width="360" height="40" as="geometry" />
        </mxCell>
        <mxCell id="entmrdIzcoo0nh64UQ4R-28" value="+ DynamicObject()" style="text;align=left;verticalAlign=top;spacingLeft=4;spacingRight=4;overflow=hidden;rotatable=0;points=[[0,0.5],[1,0.5]];portConstraint=eastwest;" parent="entmrdIzcoo0nh64UQ4R-12" vertex="1">
          <mxGeometry y="230" width="360" height="30" as="geometry" />
        </mxCell>
        <mxCell id="entmrdIzcoo0nh64UQ4R-17" value="+ virtual const char* get_type()" style="text;align=left;verticalAlign=top;spacingLeft=4;spacingRight=4;overflow=hidden;rotatable=0;points=[[0,0.5],[1,0.5]];portConstraint=eastwest;rounded=0;shadow=0;html=0;" parent="entmrdIzcoo0nh64UQ4R-12" vertex="1">
          <mxGeometry y="260" width="360" height="26" as="geometry" />
        </mxCell>
        <mxCell id="entmrdIzcoo0nh64UQ4R-29" value="+ void move_object(double coordx, double coordy, double coordz)" style="text;align=left;verticalAlign=top;spacingLeft=4;spacingRight=4;overflow=hidden;rotatable=0;points=[[0,0.5],[1,0.5]];portConstraint=eastwest;rounded=0;shadow=0;html=0;" parent="entmrdIzcoo0nh64UQ4R-12" vertex="1">
          <mxGeometry y="286" width="360" height="26" as="geometry" />
        </mxCell>
        <mxCell id="entmrdIzcoo0nh64UQ4R-20" value="+ virtual void input() " style="text;align=left;verticalAlign=top;spacingLeft=4;spacingRight=4;overflow=hidden;rotatable=0;points=[[0,0.5],[1,0.5]];portConstraint=eastwest;rounded=0;shadow=0;html=0;" parent="entmrdIzcoo0nh64UQ4R-12" vertex="1">
          <mxGeometry y="312" width="360" height="26" as="geometry" />
        </mxCell>
        <mxCell id="entmrdIzcoo0nh64UQ4R-21" value="+ virtual void print() " style="text;align=left;verticalAlign=top;spacingLeft=4;spacingRight=4;overflow=hidden;rotatable=0;points=[[0,0.5],[1,0.5]];portConstraint=eastwest;rounded=0;shadow=0;html=0;" parent="entmrdIzcoo0nh64UQ4R-12" vertex="1">
          <mxGeometry y="338" width="360" height="26" as="geometry" />
        </mxCell>
        <mxCell id="entmrdIzcoo0nh64UQ4R-44" style="edgeStyle=orthogonalEdgeStyle;rounded=0;orthogonalLoop=1;jettySize=auto;html=1;entryX=0.5;entryY=1;entryDx=0;entryDy=0;" parent="1" source="entmrdIzcoo0nh64UQ4R-30" target="entmrdIzcoo0nh64UQ4R-2" edge="1">
          <mxGeometry relative="1" as="geometry" />
        </mxCell>
        <mxCell id="entmrdIzcoo0nh64UQ4R-30" value="StaticObject" style="swimlane;fontStyle=0;align=center;verticalAlign=top;childLayout=stackLayout;horizontal=1;startSize=26;horizontalStack=0;resizeParent=1;resizeLast=0;collapsible=1;marginBottom=0;rounded=0;shadow=0;strokeWidth=2;" parent="1" vertex="1">
          <mxGeometry x="520" y="390" width="300" height="364" as="geometry">
            <mxRectangle x="230" y="140" width="160" height="26" as="alternateBounds" />
          </mxGeometry>
        </mxCell>
        <mxCell id="entmrdIzcoo0nh64UQ4R-31" value="# char* name" style="text;align=left;verticalAlign=top;spacingLeft=4;spacingRight=4;overflow=hidden;rotatable=0;points=[[0,0.5],[1,0.5]];portConstraint=eastwest;" parent="entmrdIzcoo0nh64UQ4R-30" vertex="1">
          <mxGeometry y="26" width="300" height="26" as="geometry" />
        </mxCell>
        <mxCell id="entmrdIzcoo0nh64UQ4R-32" value="# double temperature" style="text;align=left;verticalAlign=top;spacingLeft=4;spacingRight=4;overflow=hidden;rotatable=0;points=[[0,0.5],[1,0.5]];portConstraint=eastwest;" parent="entmrdIzcoo0nh64UQ4R-30" vertex="1">
          <mxGeometry y="52" width="300" height="26" as="geometry" />
        </mxCell>
        <mxCell id="entmrdIzcoo0nh64UQ4R-33" value="# bool landing_capability" style="text;align=left;verticalAlign=top;spacingLeft=4;spacingRight=4;overflow=hidden;rotatable=0;points=[[0,0.5],[1,0.5]];portConstraint=eastwest;" parent="entmrdIzcoo0nh64UQ4R-30" vertex="1">
          <mxGeometry y="78" width="300" height="26" as="geometry" />
        </mxCell>
        <mxCell id="entmrdIzcoo0nh64UQ4R-37" value="" style="line;html=1;strokeWidth=1;align=left;verticalAlign=middle;spacingTop=-1;spacingLeft=3;spacingRight=3;rotatable=0;labelPosition=right;points=[];portConstraint=eastwest;" parent="entmrdIzcoo0nh64UQ4R-30" vertex="1">
          <mxGeometry y="104" width="300" height="8" as="geometry" />
        </mxCell>
        <mxCell id="entmrdIzcoo0nh64UQ4R-38" value="+ StaticObject(char* name, double temperature, &#xa;                        bool landing_capability)" style="text;align=left;verticalAlign=top;spacingLeft=4;spacingRight=4;overflow=hidden;rotatable=0;points=[[0,0.5],[1,0.5]];portConstraint=eastwest;" parent="entmrdIzcoo0nh64UQ4R-30" vertex="1">
          <mxGeometry y="112" width="300" height="40" as="geometry" />
        </mxCell>
        <mxCell id="entmrdIzcoo0nh64UQ4R-39" value="+ StaticObject()" style="text;align=left;verticalAlign=top;spacingLeft=4;spacingRight=4;overflow=hidden;rotatable=0;points=[[0,0.5],[1,0.5]];portConstraint=eastwest;" parent="entmrdIzcoo0nh64UQ4R-30" vertex="1">
          <mxGeometry y="152" width="300" height="30" as="geometry" />
        </mxCell>
        <mxCell id="GsuKzRbx3_LwUMYrY-lj-2" value="+ StaticObject(const StaitcObject&amp; copy)" style="text;align=left;verticalAlign=top;spacingLeft=4;spacingRight=4;overflow=hidden;rotatable=0;points=[[0,0.5],[1,0.5]];portConstraint=eastwest;rounded=0;shadow=0;html=0;" vertex="1" parent="entmrdIzcoo0nh64UQ4R-30">
          <mxGeometry y="182" width="300" height="26" as="geometry" />
        </mxCell>
        <mxCell id="GsuKzRbx3_LwUMYrY-lj-3" value="+ StaticObject(StaitcObject&amp;&amp; move)" style="text;align=left;verticalAlign=top;spacingLeft=4;spacingRight=4;overflow=hidden;rotatable=0;points=[[0,0.5],[1,0.5]];portConstraint=eastwest;rounded=0;shadow=0;html=0;" vertex="1" parent="entmrdIzcoo0nh64UQ4R-30">
          <mxGeometry y="208" width="300" height="26" as="geometry" />
        </mxCell>
        <mxCell id="GsuKzRbx3_LwUMYrY-lj-4" value="+ StaticObject&amp; operator=(const StaitcObject&amp; copy)" style="text;align=left;verticalAlign=top;spacingLeft=4;spacingRight=4;overflow=hidden;rotatable=0;points=[[0,0.5],[1,0.5]];portConstraint=eastwest;rounded=0;shadow=0;html=0;" vertex="1" parent="entmrdIzcoo0nh64UQ4R-30">
          <mxGeometry y="234" width="300" height="26" as="geometry" />
        </mxCell>
        <mxCell id="GsuKzRbx3_LwUMYrY-lj-5" value="+ StaticObject&amp; operator=(StaitcObject&amp;&amp; move)" style="text;align=left;verticalAlign=top;spacingLeft=4;spacingRight=4;overflow=hidden;rotatable=0;points=[[0,0.5],[1,0.5]];portConstraint=eastwest;rounded=0;shadow=0;html=0;" vertex="1" parent="entmrdIzcoo0nh64UQ4R-30">
          <mxGeometry y="260" width="300" height="26" as="geometry" />
        </mxCell>
        <mxCell id="entmrdIzcoo0nh64UQ4R-40" value="+ virtual const char* get_type()" style="text;align=left;verticalAlign=top;spacingLeft=4;spacingRight=4;overflow=hidden;rotatable=0;points=[[0,0.5],[1,0.5]];portConstraint=eastwest;rounded=0;shadow=0;html=0;" parent="entmrdIzcoo0nh64UQ4R-30" vertex="1">
          <mxGeometry y="286" width="300" height="26" as="geometry" />
        </mxCell>
        <mxCell id="entmrdIzcoo0nh64UQ4R-42" value="+ virtual void input() " style="text;align=left;verticalAlign=top;spacingLeft=4;spacingRight=4;overflow=hidden;rotatable=0;points=[[0,0.5],[1,0.5]];portConstraint=eastwest;rounded=0;shadow=0;html=0;" parent="entmrdIzcoo0nh64UQ4R-30" vertex="1">
          <mxGeometry y="312" width="300" height="26" as="geometry" />
        </mxCell>
        <mxCell id="entmrdIzcoo0nh64UQ4R-43" value="+ virtual void print() " style="text;align=left;verticalAlign=top;spacingLeft=4;spacingRight=4;overflow=hidden;rotatable=0;points=[[0,0.5],[1,0.5]];portConstraint=eastwest;rounded=0;shadow=0;html=0;" parent="entmrdIzcoo0nh64UQ4R-30" vertex="1">
          <mxGeometry y="338" width="300" height="26" as="geometry" />
        </mxCell>
        <mxCell id="entmrdIzcoo0nh64UQ4R-59" style="edgeStyle=orthogonalEdgeStyle;rounded=0;orthogonalLoop=1;jettySize=auto;html=1;" parent="1" source="entmrdIzcoo0nh64UQ4R-45" target="entmrdIzcoo0nh64UQ4R-12" edge="1">
          <mxGeometry relative="1" as="geometry">
            <Array as="points">
              <mxPoint x="120" y="800" />
              <mxPoint x="190" y="800" />
            </Array>
          </mxGeometry>
        </mxCell>
        <mxCell id="entmrdIzcoo0nh64UQ4R-45" value="Asteroid" style="swimlane;fontStyle=0;align=center;verticalAlign=top;childLayout=stackLayout;horizontal=1;startSize=26;horizontalStack=0;resizeParent=1;resizeLast=0;collapsible=1;marginBottom=0;rounded=0;shadow=0;strokeWidth=2;" parent="1" vertex="1">
          <mxGeometry x="10" y="840" width="220" height="210" as="geometry">
            <mxRectangle x="230" y="140" width="160" height="26" as="alternateBounds" />
          </mxGeometry>
        </mxCell>
        <mxCell id="entmrdIzcoo0nh64UQ4R-46" value="# double maxcssize" style="text;align=left;verticalAlign=top;spacingLeft=4;spacingRight=4;overflow=hidden;rotatable=0;points=[[0,0.5],[1,0.5]];portConstraint=eastwest;" parent="entmrdIzcoo0nh64UQ4R-45" vertex="1">
          <mxGeometry y="26" width="220" height="26" as="geometry" />
        </mxCell>
        <mxCell id="entmrdIzcoo0nh64UQ4R-52" value="" style="line;html=1;strokeWidth=1;align=left;verticalAlign=middle;spacingTop=-1;spacingLeft=3;spacingRight=3;rotatable=0;labelPosition=right;points=[];portConstraint=eastwest;" parent="entmrdIzcoo0nh64UQ4R-45" vertex="1">
          <mxGeometry y="52" width="220" height="8" as="geometry" />
        </mxCell>
        <mxCell id="entmrdIzcoo0nh64UQ4R-53" value="+ Asteroid(double maxcssize)" style="text;align=left;verticalAlign=top;spacingLeft=4;spacingRight=4;overflow=hidden;rotatable=0;points=[[0,0.5],[1,0.5]];portConstraint=eastwest;" parent="entmrdIzcoo0nh64UQ4R-45" vertex="1">
          <mxGeometry y="60" width="220" height="30" as="geometry" />
        </mxCell>
        <mxCell id="entmrdIzcoo0nh64UQ4R-54" value="+ Asteroid()" style="text;align=left;verticalAlign=top;spacingLeft=4;spacingRight=4;overflow=hidden;rotatable=0;points=[[0,0.5],[1,0.5]];portConstraint=eastwest;" parent="entmrdIzcoo0nh64UQ4R-45" vertex="1">
          <mxGeometry y="90" width="220" height="30" as="geometry" />
        </mxCell>
        <mxCell id="entmrdIzcoo0nh64UQ4R-55" value="+ virtual const char* get_type()" style="text;align=left;verticalAlign=top;spacingLeft=4;spacingRight=4;overflow=hidden;rotatable=0;points=[[0,0.5],[1,0.5]];portConstraint=eastwest;rounded=0;shadow=0;html=0;" parent="entmrdIzcoo0nh64UQ4R-45" vertex="1">
          <mxGeometry y="120" width="220" height="26" as="geometry" />
        </mxCell>
        <mxCell id="entmrdIzcoo0nh64UQ4R-57" value="+ virtual void input() " style="text;align=left;verticalAlign=top;spacingLeft=4;spacingRight=4;overflow=hidden;rotatable=0;points=[[0,0.5],[1,0.5]];portConstraint=eastwest;rounded=0;shadow=0;html=0;" parent="entmrdIzcoo0nh64UQ4R-45" vertex="1">
          <mxGeometry y="146" width="220" height="26" as="geometry" />
        </mxCell>
        <mxCell id="entmrdIzcoo0nh64UQ4R-58" value="+ virtual void print() " style="text;align=left;verticalAlign=top;spacingLeft=4;spacingRight=4;overflow=hidden;rotatable=0;points=[[0,0.5],[1,0.5]];portConstraint=eastwest;rounded=0;shadow=0;html=0;" parent="entmrdIzcoo0nh64UQ4R-45" vertex="1">
          <mxGeometry y="172" width="220" height="26" as="geometry" />
        </mxCell>
        <mxCell id="entmrdIzcoo0nh64UQ4R-70" style="edgeStyle=orthogonalEdgeStyle;rounded=0;orthogonalLoop=1;jettySize=auto;html=1;" parent="1" source="entmrdIzcoo0nh64UQ4R-60" target="entmrdIzcoo0nh64UQ4R-12" edge="1">
          <mxGeometry relative="1" as="geometry">
            <Array as="points">
              <mxPoint x="379" y="800" />
              <mxPoint x="190" y="800" />
            </Array>
          </mxGeometry>
        </mxCell>
        <mxCell id="entmrdIzcoo0nh64UQ4R-85" style="edgeStyle=orthogonalEdgeStyle;rounded=0;orthogonalLoop=1;jettySize=auto;html=1;dashed=1;endArrow=open;endFill=0;" parent="1" source="entmrdIzcoo0nh64UQ4R-60" target="entmrdIzcoo0nh64UQ4R-72" edge="1">
          <mxGeometry relative="1" as="geometry" />
        </mxCell>
        <mxCell id="entmrdIzcoo0nh64UQ4R-60" value="SpaceShip" style="swimlane;fontStyle=0;align=center;verticalAlign=top;childLayout=stackLayout;horizontal=1;startSize=26;horizontalStack=0;resizeParent=1;resizeLast=0;collapsible=1;marginBottom=0;rounded=0;shadow=0;strokeWidth=2;" parent="1" vertex="1">
          <mxGeometry x="260" y="840" width="280" height="406" as="geometry">
            <mxRectangle x="230" y="140" width="160" height="26" as="alternateBounds" />
          </mxGeometry>
        </mxCell>
        <mxCell id="entmrdIzcoo0nh64UQ4R-68" value="# char* name" style="text;align=left;verticalAlign=top;spacingLeft=4;spacingRight=4;overflow=hidden;rotatable=0;points=[[0,0.5],[1,0.5]];portConstraint=eastwest;" parent="entmrdIzcoo0nh64UQ4R-60" vertex="1">
          <mxGeometry y="26" width="280" height="26" as="geometry" />
        </mxCell>
        <mxCell id="entmrdIzcoo0nh64UQ4R-61" value="# double maxvelocity" style="text;align=left;verticalAlign=top;spacingLeft=4;spacingRight=4;overflow=hidden;rotatable=0;points=[[0,0.5],[1,0.5]];portConstraint=eastwest;" parent="entmrdIzcoo0nh64UQ4R-60" vertex="1">
          <mxGeometry y="52" width="280" height="26" as="geometry" />
        </mxCell>
        <mxCell id="entmrdIzcoo0nh64UQ4R-69" value="# unsigned int ammunition" style="text;align=left;verticalAlign=top;spacingLeft=4;spacingRight=4;overflow=hidden;rotatable=0;points=[[0,0.5],[1,0.5]];portConstraint=eastwest;" parent="entmrdIzcoo0nh64UQ4R-60" vertex="1">
          <mxGeometry y="78" width="280" height="26" as="geometry" />
        </mxCell>
        <mxCell id="entmrdIzcoo0nh64UQ4R-62" value="" style="line;html=1;strokeWidth=1;align=left;verticalAlign=middle;spacingTop=-1;spacingLeft=3;spacingRight=3;rotatable=0;labelPosition=right;points=[];portConstraint=eastwest;" parent="entmrdIzcoo0nh64UQ4R-60" vertex="1">
          <mxGeometry y="104" width="280" height="8" as="geometry" />
        </mxCell>
        <mxCell id="entmrdIzcoo0nh64UQ4R-63" value="+ SpaceShip(string name, double maxvelocity, &#xa;                unsigned int ammunition)" style="text;align=left;verticalAlign=top;spacingLeft=4;spacingRight=4;overflow=hidden;rotatable=0;points=[[0,0.5],[1,0.5]];portConstraint=eastwest;" parent="entmrdIzcoo0nh64UQ4R-60" vertex="1">
          <mxGeometry y="112" width="280" height="40" as="geometry" />
        </mxCell>
        <mxCell id="entmrdIzcoo0nh64UQ4R-64" value="+ SpaceShip()" style="text;align=left;verticalAlign=top;spacingLeft=4;spacingRight=4;overflow=hidden;rotatable=0;points=[[0,0.5],[1,0.5]];portConstraint=eastwest;" parent="entmrdIzcoo0nh64UQ4R-60" vertex="1">
          <mxGeometry y="152" width="280" height="30" as="geometry" />
        </mxCell>
        <mxCell id="GsuKzRbx3_LwUMYrY-lj-10" value="+ SpaceShip(const SpaceShip&amp; copy)" style="text;align=left;verticalAlign=top;spacingLeft=4;spacingRight=4;overflow=hidden;rotatable=0;points=[[0,0.5],[1,0.5]];portConstraint=eastwest;" vertex="1" parent="entmrdIzcoo0nh64UQ4R-60">
          <mxGeometry y="182" width="280" height="30" as="geometry" />
        </mxCell>
        <mxCell id="GsuKzRbx3_LwUMYrY-lj-11" value="+ SpaceShip(SpaceShip&amp;&amp; move)" style="text;align=left;verticalAlign=top;spacingLeft=4;spacingRight=4;overflow=hidden;rotatable=0;points=[[0,0.5],[1,0.5]];portConstraint=eastwest;" vertex="1" parent="entmrdIzcoo0nh64UQ4R-60">
          <mxGeometry y="212" width="280" height="30" as="geometry" />
        </mxCell>
        <mxCell id="GsuKzRbx3_LwUMYrY-lj-13" value="+ SpaceShip&amp; operator=(const SpaceShip&amp; copy)" style="text;align=left;verticalAlign=top;spacingLeft=4;spacingRight=4;overflow=hidden;rotatable=0;points=[[0,0.5],[1,0.5]];portConstraint=eastwest;" vertex="1" parent="entmrdIzcoo0nh64UQ4R-60">
          <mxGeometry y="242" width="280" height="30" as="geometry" />
        </mxCell>
        <mxCell id="GsuKzRbx3_LwUMYrY-lj-12" value="+ SpaceShip&amp; operator=(SpaceShip&amp;&amp; move)" style="text;align=left;verticalAlign=top;spacingLeft=4;spacingRight=4;overflow=hidden;rotatable=0;points=[[0,0.5],[1,0.5]];portConstraint=eastwest;" vertex="1" parent="entmrdIzcoo0nh64UQ4R-60">
          <mxGeometry y="272" width="280" height="30" as="geometry" />
        </mxCell>
        <mxCell id="entmrdIzcoo0nh64UQ4R-71" value="+ Rocket fire_rocket()" style="text;align=left;verticalAlign=top;spacingLeft=4;spacingRight=4;overflow=hidden;rotatable=0;points=[[0,0.5],[1,0.5]];portConstraint=eastwest;rounded=0;shadow=0;html=0;" parent="entmrdIzcoo0nh64UQ4R-60" vertex="1">
          <mxGeometry y="302" width="280" height="26" as="geometry" />
        </mxCell>
        <mxCell id="entmrdIzcoo0nh64UQ4R-65" value="+ virtual const char* get_type()" style="text;align=left;verticalAlign=top;spacingLeft=4;spacingRight=4;overflow=hidden;rotatable=0;points=[[0,0.5],[1,0.5]];portConstraint=eastwest;rounded=0;shadow=0;html=0;" parent="entmrdIzcoo0nh64UQ4R-60" vertex="1">
          <mxGeometry y="328" width="280" height="26" as="geometry" />
        </mxCell>
        <mxCell id="entmrdIzcoo0nh64UQ4R-66" value="+ virtual void input() " style="text;align=left;verticalAlign=top;spacingLeft=4;spacingRight=4;overflow=hidden;rotatable=0;points=[[0,0.5],[1,0.5]];portConstraint=eastwest;rounded=0;shadow=0;html=0;" parent="entmrdIzcoo0nh64UQ4R-60" vertex="1">
          <mxGeometry y="354" width="280" height="26" as="geometry" />
        </mxCell>
        <mxCell id="entmrdIzcoo0nh64UQ4R-67" value="+ virtual void print() " style="text;align=left;verticalAlign=top;spacingLeft=4;spacingRight=4;overflow=hidden;rotatable=0;points=[[0,0.5],[1,0.5]];portConstraint=eastwest;rounded=0;shadow=0;html=0;" parent="entmrdIzcoo0nh64UQ4R-60" vertex="1">
          <mxGeometry y="380" width="280" height="26" as="geometry" />
        </mxCell>
        <mxCell id="entmrdIzcoo0nh64UQ4R-83" style="edgeStyle=orthogonalEdgeStyle;rounded=0;orthogonalLoop=1;jettySize=auto;html=1;" parent="1" source="entmrdIzcoo0nh64UQ4R-72" target="entmrdIzcoo0nh64UQ4R-12" edge="1">
          <mxGeometry relative="1" as="geometry">
            <Array as="points">
              <mxPoint x="699" y="800" />
              <mxPoint x="190" y="800" />
            </Array>
          </mxGeometry>
        </mxCell>
        <mxCell id="entmrdIzcoo0nh64UQ4R-72" value="Rocket" style="swimlane;fontStyle=0;align=center;verticalAlign=top;childLayout=stackLayout;horizontal=1;startSize=26;horizontalStack=0;resizeParent=1;resizeLast=0;collapsible=1;marginBottom=0;rounded=0;shadow=0;strokeWidth=2;" parent="1" vertex="1">
          <mxGeometry x="570" y="840" width="250" height="240" as="geometry">
            <mxRectangle x="230" y="140" width="160" height="26" as="alternateBounds" />
          </mxGeometry>
        </mxCell>
        <mxCell id="entmrdIzcoo0nh64UQ4R-74" value="# double power" style="text;align=left;verticalAlign=top;spacingLeft=4;spacingRight=4;overflow=hidden;rotatable=0;points=[[0,0.5],[1,0.5]];portConstraint=eastwest;" parent="entmrdIzcoo0nh64UQ4R-72" vertex="1">
          <mxGeometry y="26" width="250" height="26" as="geometry" />
        </mxCell>
        <mxCell id="entmrdIzcoo0nh64UQ4R-75" value="# double lifetime" style="text;align=left;verticalAlign=top;spacingLeft=4;spacingRight=4;overflow=hidden;rotatable=0;points=[[0,0.5],[1,0.5]];portConstraint=eastwest;" parent="entmrdIzcoo0nh64UQ4R-72" vertex="1">
          <mxGeometry y="52" width="250" height="26" as="geometry" />
        </mxCell>
        <mxCell id="entmrdIzcoo0nh64UQ4R-76" value="" style="line;html=1;strokeWidth=1;align=left;verticalAlign=middle;spacingTop=-1;spacingLeft=3;spacingRight=3;rotatable=0;labelPosition=right;points=[];portConstraint=eastwest;" parent="entmrdIzcoo0nh64UQ4R-72" vertex="1">
          <mxGeometry y="78" width="250" height="8" as="geometry" />
        </mxCell>
        <mxCell id="entmrdIzcoo0nh64UQ4R-77" value="+ Rocket(double power, double lifetime)" style="text;align=left;verticalAlign=top;spacingLeft=4;spacingRight=4;overflow=hidden;rotatable=0;points=[[0,0.5],[1,0.5]];portConstraint=eastwest;" parent="entmrdIzcoo0nh64UQ4R-72" vertex="1">
          <mxGeometry y="86" width="250" height="34" as="geometry" />
        </mxCell>
        <mxCell id="entmrdIzcoo0nh64UQ4R-78" value="+ Rocket()" style="text;align=left;verticalAlign=top;spacingLeft=4;spacingRight=4;overflow=hidden;rotatable=0;points=[[0,0.5],[1,0.5]];portConstraint=eastwest;" parent="entmrdIzcoo0nh64UQ4R-72" vertex="1">
          <mxGeometry y="120" width="250" height="30" as="geometry" />
        </mxCell>
        <mxCell id="entmrdIzcoo0nh64UQ4R-80" value="+ virtual const char* get_type()" style="text;align=left;verticalAlign=top;spacingLeft=4;spacingRight=4;overflow=hidden;rotatable=0;points=[[0,0.5],[1,0.5]];portConstraint=eastwest;rounded=0;shadow=0;html=0;" parent="entmrdIzcoo0nh64UQ4R-72" vertex="1">
          <mxGeometry y="150" width="250" height="26" as="geometry" />
        </mxCell>
        <mxCell id="entmrdIzcoo0nh64UQ4R-81" value="+ virtual void input() " style="text;align=left;verticalAlign=top;spacingLeft=4;spacingRight=4;overflow=hidden;rotatable=0;points=[[0,0.5],[1,0.5]];portConstraint=eastwest;rounded=0;shadow=0;html=0;" parent="entmrdIzcoo0nh64UQ4R-72" vertex="1">
          <mxGeometry y="176" width="250" height="26" as="geometry" />
        </mxCell>
        <mxCell id="entmrdIzcoo0nh64UQ4R-82" value="+ virtual void print() " style="text;align=left;verticalAlign=top;spacingLeft=4;spacingRight=4;overflow=hidden;rotatable=0;points=[[0,0.5],[1,0.5]];portConstraint=eastwest;rounded=0;shadow=0;html=0;" parent="entmrdIzcoo0nh64UQ4R-72" vertex="1">
          <mxGeometry y="202" width="250" height="26" as="geometry" />
        </mxCell>
      </root>
    </mxGraphModel>
  </diagram>
</mxfile>
